# File created by Blade
# Date/Time:  Tue Sep 30 19:36:22 2014
#---------------------------------------------------------
:version 1.10
:name HOM
:units
  mass 1.0
  length 1.000000
  angle deg
:documentation
     Acclaim Skeleton File
:root
   axis xyz
   order TX TY TZ RX RY RZ
   position 0.000000 0.000000 0.000000
   orientation 0 0 0
:bonedata
   begin
      id 1
      name Spine_dum
      direction 0.000000 1.000000 0.000000
      length 3.241213
      axis 0.0 0.0 0.0 xyz
   end
   begin
      id 2
      name LeftUpLeg_dum
      direction 1.000000 0.000000 0.000000
      length 3.434019
      axis 0.0 0.0 0.0 xyz
   end
   begin
      id 3
      name RightUpLeg_dum
      direction -1.000000 0.000000 0.000000
      length 3.434019
      axis 0.0 0.0 0.0 xyz
   end
   begin
      id 4
      name Spine
      direction 0.000000 1.000000 0.000000
      length 0.000000
      axis 0.0 0.0 0.0 xyz
      dof rx ry rz
   end
   begin
      id 5
      name Spine_dum1
      direction 0.000000 1.000000 0.000000
      length 18.382958
      axis 0.0 0.0 0.0 xyz
   end
   begin
      id 6
      name Spine_dum2
      direction 0.000000 1.000000 0.000000
      length 12.828261
      axis 0.0 0.0 0.0 xyz
   end
   begin
      id 7
      name Spine_dum3
      direction 0.000000 1.000000 0.000000
      length 12.828261
      axis 0.0 0.0 0.0 xyz
   end
   begin
      id 8
      name Head
      direction 0.000000 1.000000 0.000000
      length 4.527550
      axis 0.0 0.0 0.0 xyz
      dof rx ry rz
   end
   begin
      id 9
      name LeftShoulder
      direction 1.000000 0.000000 0.000000
      length 7.748055
      axis 0.0 0.0 -90.0 xyz
      dof rx ry rz
   end
   begin
      id 10
      name LeftArm
      direction 1.000000 0.000000 0.000000
      length 10.635614
      axis 0.0 0.0 -90.0 xyz
      dof rx ry rz
   end
   begin
      id 11
      name LeftForeArm
      direction 1.000000 0.000000 0.000000
      length 8.346755
      axis 0.0 0.0 -90.0 xyz
      dof ry rz rx
   end
   begin
      id 12
      name LeftHand
      direction 0.000000 0.000000 0.000000
      length 0.000000
      axis 0.0 0.0 -90.0 xyz
      dof rx ry rz
   end
   begin
      id 13
      name LeftHand_dum1
      direction 0.000000 0.000000 0.000000
      length 0.000000
      axis 0.0 0.0 -90.0 xyz
   end
   begin
      id 14
      name LeftHand_dum2
      direction 1.000000 0.000000 0.000000
      length 3.937000
      axis 0.0 0.0 -90.0 xyz
   end
   begin
      id 15
      name LeftHandThumb1
      direction 0.000000 0.000000 1.000000
      length 3.937000
      axis 0.0 0.0 -90.0 xyz
      dof rx rz ry
   end
   begin
      id 16
      name RightShoulder
      direction -1.000000 0.000000 0.000000
      length 7.748055
      axis 0.0 0.0 90.0 xyz
      dof rx ry rz
   end
   begin
      id 17
      name RightArm
      direction -1.000000 0.000000 0.000000
      length 10.635614
      axis 0.0 0.0 90.0 xyz
      dof rx ry rz
   end
   begin
      id 18
      name RightForeArm
      direction -1.000000 0.000000 0.000000
      length 8.346755
      axis 0.0 0.0 90.0 xyz
      dof ry rz rx
   end
   begin
      id 19
      name RightHand
      direction 0.000000 0.000000 0.000000
      length 0.000000
      axis 0.0 0.0 90.0 xyz
      dof rx ry rz
   end
   begin
      id 20
      name RightHand_dum1
      direction 0.000000 0.000000 0.000000
      length 0.000000
      axis 0.0 0.0 90.0 xyz
   end
   begin
      id 21
      name RightHand_dum2
      direction -1.000000 0.000000 0.000000
      length 3.937000
      axis 0.0 0.0 90.0 xyz
   end
   begin
      id 22
      name RightHandThumb1
      direction 0.000000 0.000000 1.000000
      length 3.937000
      axis 0.0 0.0 90.0 xyz
      dof rx rz ry
   end
   begin
      id 23
      name LeftUpLeg
      direction 0.000000 -1.000000 0.000000
      length 15.713025
      axis 0.0 0.0 0.0 xyz
      dof rx ry rz
   end
   begin
      id 24
      name LeftLeg
      direction 0.000000 -1.000000 0.000000
      length 14.435119
      axis 0.0 0.0 0.0 xyz
      dof rx ry rz
   end
   begin
      id 25
      name LeftFoot
      direction 0.000000 -0.258819 0.965926
      length 4.938895
      axis 15.0 0.0 0.0 xyz
      dof rx ry rz
   end
   begin
      id 26
      name LeftToeBase
      direction 0.000000 0.000000 1.000000
      length 2.952750
      axis 0.0 0.0 0.0 xyz
      dof rx ry rz
   end
   begin
      id 27
      name RightUpLeg
      direction 0.000000 -1.000000 0.000000
      length 15.713025
      axis 0.0 0.0 0.0 xyz
      dof rx ry rz
   end
   begin
      id 28
      name RightLeg
      direction 0.000000 -1.000000 0.000000
      length 14.435119
      axis 0.0 0.0 0.0 xyz
      dof rx ry rz
   end
   begin
      id 29
      name RightFoot
      direction 0.000000 -0.258819 0.965926
      length 4.938895
      axis 15.0 0.0 0.0 xyz
      dof rx ry rz
   end
   begin
      id 30
      name RightToeBase
      direction 0.000000 0.000000 1.000000
      length 2.952750
      axis 0.0 0.0 0.0 xyz
      dof rx ry rz
   end
:hierarchy
   begin
      root Spine_dum LeftUpLeg_dum RightUpLeg_dum
      Spine_dum Spine
      LeftUpLeg_dum LeftUpLeg
      RightUpLeg_dum RightUpLeg
      Spine Spine_dum1 Spine_dum2 Spine_dum3
      Spine_dum1 Head
      Spine_dum2 LeftShoulder
      Spine_dum3 RightShoulder
      LeftShoulder LeftArm
      LeftArm LeftForeArm
      LeftForeArm LeftHand
      LeftHand LeftHand_dum1 LeftHand_dum2
      LeftHand_dum1 LeftHandThumb1
      RightShoulder RightArm
      RightArm RightForeArm
      RightForeArm RightHand
      RightHand RightHand_dum1 RightHand_dum2
      RightHand_dum1 RightHandThumb1
      LeftUpLeg LeftLeg
      LeftLeg LeftFoot
      LeftFoot LeftToeBase
      RightUpLeg RightLeg
      RightLeg RightFoot
      RightFoot RightToeBase
   end

# File created by Blade
# Date/Time:  Tue Sep 23 19:18:47 2014
# Frame Rate: 120.000 fps
#------------------------------------------------------
:FULLY-SPECIFIED
:DEGREES
1051
root 0.397070 33.812265 1.920026 67.923764 9.662215 -25.161239
Spine -56.927153 -13.106014 37.092933
Head -7.371432 2.524761 26.851463
LeftShoulder -12.814282 38.394999 28.402481
LeftArm 58.385393 -27.547373 -85.589150
LeftForeArm 2.570819 -0.000000 105.586369
LeftHand -60.220245 -0.000000 5.188608
LeftHandThumb1 -26.253704 0.000000 33.147579
RightShoulder -40.798127 -47.429588 17.676443
RightArm 47.732097 49.021707 113.887228
RightForeArm 81.600169 -0.000000 29.856850
RightHand 14.503831 -0.000000 31.008228
RightHandThumb1 -24.326973 -0.000000 -32.862282
LeftUpLeg -71.472590 16.771282 14.019974
LeftLeg 12.507523 -0.000000 -0.000000
LeftFoot -7.262152 10.347728 6.615931
LeftToeBase 0.747275 -0.000000 -0.000000
RightUpLeg -16.335763 4.436323 -19.792284
RightLeg 114.479683 -0.000000 -0.000000
RightFoot 42.988280 3.053187 7.342433
RightToeBase 32.715733 -0.000000 -0.000000
1052
root 0.387228 33.818265 1.887015 68.514544 9.637218 -25.260497
Spine -57.021221 -12.984577 37.037351
Head -7.821815 2.645775 27.308306
LeftShoulder -12.896844 38.338683 28.440947
LeftArm 58.648865 -28.050869 -85.573906
LeftForeArm 2.245355 0.000000 106.017943
LeftHand -60.228351 -0.000000 4.971531
LeftHandThumb1 -26.253704 0.000000 33.147579
RightShoulder -40.726269 -47.404095 17.529884
RightArm 47.747486 49.193548 113.858690
RightForeArm 81.677664 -0.000000 29.780293
RightHand 14.845669 -0.000000 30.483724
RightHandThumb1 -24.326973 -0.000000 -32.862282
LeftUpLeg -71.922221 16.866974 14.152903
LeftLeg 12.262715 -0.000000 -0.000000
LeftFoot -6.988987 10.747005 7.102929
LeftToeBase 0.687949 -0.000000 -0.000000
RightUpLeg -16.196930 4.346554 -19.884653
RightLeg 113.981733 -0.000000 -0.000000
RightFoot 43.074479 3.093527 7.472592
RightToeBase 32.779442 -0.000000 -0.000000
1053
root 0.377776 33.828251 1.851509 69.160337 9.627127 -25.387782
Spine -57.138577 -12.795905 36.953537
Head -8.286261 2.739963 27.812608
LeftShoulder -12.869404 38.283589 28.545892
LeftArm 58.955267 -28.591484 -85.623250
LeftForeArm 2.050838 -0.000000 106.493576
LeftHand -60.287413 -0.000000 4.501528
LeftHandThumb1 -26.253704 0.000000 33.147579
RightShoulder -40.685557 -47.348276 17.365486
RightArm 48.057853 49.540982 114.235126
RightForeArm 81.654957 0.000000 29.555248
RightHand 14.700582 -0.000000 30.160820
RightHandThumb1 -24.326973 -0.000000 -32.862282
LeftUpLeg -72.451626 17.040997 14.224886
LeftLeg 12.012908 -0.000000 -0.000000
LeftFoot -6.682634 11.031377 7.551753
LeftToeBase 0.567610 -0.000000 -0.000000
RightUpLeg -16.126523 4.276872 -19.945696
RightLeg 113.525783 -0.000000 -0.000000
RightFoot 43.051606 3.222460 7.591620
RightToeBase 32.806292 -0.000000 -0.000000
1054
root 0.366790 33.836548 1.815262 69.736486 9.634751 -25.447829
Spine -57.205504 -12.722898 36.826562
Head -8.778065 2.808641 28.354345
LeftShoulder -12.855690 38.194426 28.689917
LeftArm 59.265797 -29.085507 -85.669960
LeftForeArm 1.862612 -0.000000 106.957710
LeftHand -60.405958 0.000000 4.225145
LeftHandThumb1 -26.253704 0.000000 33.147579
RightShoulder -40.718513 -47.266225 17.313750
RightArm 48.295244 49.814711 114.424635
RightForeArm 81.601547 -0.000000 29.382021
RightHand 14.835820 -0.000000 29.436566
RightHandThumb1 -24.326973 -0.000000 -32.862282
LeftUpLeg -72.925721 17.165749 14.264560
LeftLeg 11.753463 -0.000000 -0.000000
LeftFoot -6.443404 11.173490 7.738421
LeftToeBase 0.523824 -0.000000 -0.000000
RightUpLeg -15.929748 4.107341 -20.057790
RightLeg 113.038747 -0.000000 -0.000000
RightFoot 43.021318 3.275152 7.657045
RightToeBase 32.732696 -0.000000 -0.000000
1055
root 0.355789 33.846860 1.778125 70.337724 9.627952 -25.531006
Spine -57.272829 -12.631968 36.719117
Head -9.284904 2.941845 28.868135
LeftShoulder -12.868221 38.186996 28.803173
LeftArm 59.625300 -29.618103 -85.745256
LeftForeArm 1.810250 -0.000000 107.416526
LeftHand -60.473327 -0.000000 4.006513
LeftHandThumb1 -26.253704 0.000000 33.147579
RightShoulder -40.674374 -47.128883 17.174691
RightArm 48.526304 50.174243 114.613340
RightForeArm 81.650845 -0.000000 29.135283
RightHand 14.662721 -0.000000 29.258550
RightHandThumb1 -24.326973 -0.000000 -32.862282
LeftUpLeg -73.446185 17.359803 14.218519
LeftLeg 11.501706 -0.000000 -0.000000
LeftFoot -6.122503 11.312741 8.120472
LeftToeBase 0.330829 -0.000000 -0.000000
RightUpLeg -15.760375 3.979253 -20.163160
RightLeg 112.578942 -0.000000 -0.000000
RightFoot 42.832725 3.402348 7.665916
RightToeBase 32.682206 -0.000000 -0.000000
1056
root 0.345017 33.855497 1.737858 70.936318 9.636075 -25.562034
Spine -57.373660 -12.604997 36.632612
Head -9.718283 3.109704 29.359689
LeftShoulder -12.869192 38.195224 28.914945
LeftArm 59.961232 -30.165248 -85.767940
LeftForeArm 1.661424 -0.000000 107.847146
LeftHand -60.378141 -0.000000 4.170843
LeftHandThumb1 -26.253704 0.000000 33.147579
RightShoulder -40.645648 -47.030230 17.030158
RightArm 48.962164 50.547429 114.999122
RightForeArm 81.348467 0.000000 28.891236
RightHand 14.828221 -0.000000 28.589621
RightHandThumb1 -24.326973 -0.000000 -32.862282
LeftUpLeg -73.977543 17.511314 14.154158
LeftLeg 11.247392 -0.000000 -0.000000
LeftFoot -5.881145 11.343557 8.329937
LeftToeBase 0.289765 -0.000000 -0.000000
RightUpLeg -15.538835 3.730714 -20.272177
RightLeg 112.121522 -0.000000 -0.000000
RightFoot 42.662854 3.266785 7.564130
RightToeBase 32.491390 -0.000000 -0.000000
1057
root 0.332177 33.864501 1.698856 71.503553 9.712053 -25.579548
Spine -57.424591 -12.582532 36.481302
Head -10.226682 3.139667 29.915864
LeftShoulder -12.762957 38.121652 29.170878
LeftArm 60.295113 -30.621834 -85.879684
LeftForeArm 1.570733 -0.000000 108.307661
LeftHand -60.407298 0.000000 4.363609
LeftHandThumb1 -26.253704 0.000000 33.147579
RightShoulder -40.731802 -46.832090 16.983767
RightArm 49.269214 50.928770 115.126706
RightForeArm 81.368630 -0.000000 28.451736
RightHand 14.696819 -0.000000 28.264370
RightHandThumb1 -24.326973 -0.000000 -32.862282
LeftUpLeg -74.507745 17.651154 14.098936
LeftLeg 10.991454 -0.000000 -0.000000
LeftFoot -5.729615 11.280186 8.308873
LeftToeBase 0.470716 -0.000000 -0.000000
RightUpLeg -15.235637 3.502145 -20.326287
RightLeg 111.658066 -0.000000 -0.000000
RightFoot 42.415284 3.281771 7.466762
RightToeBase 32.186399 -0.000000 -0.000000
1058
root 0.319514 33.871123 1.658432 72.017268 9.786290 -25.607810
Spine -57.426776 -12.608294 36.393975
Head -10.718018 3.259006 30.378065
LeftShoulder -12.712133 37.984805 29.343750
LeftArm 60.548247 -31.145094 -85.902517
LeftForeArm 1.449371 -0.000000 108.753939
LeftHand -60.480616 -0.000000 4.311729
LeftHandThumb1 -26.253704 0.000000 33.147579
RightShoulder -40.772416 -46.648328 16.845380
RightArm 49.642528 51.280167 115.286084
RightForeArm 81.107061 0.000000 27.977287
RightHand 14.643894 -0.000000 27.820367
RightHandThumb1 -24.326973 -0.000000 -32.862282
LeftUpLeg -74.999434 17.798448 14.039204
LeftLeg 10.756060 -0.000000 -0.000000
LeftFoot -5.545568 11.234234 8.439596
LeftToeBase 0.534609 -0.000000 -0.000000
RightUpLeg -14.867084 3.288033 -20.411855
RightLeg 111.168088 -0.000000 -0.000000
RightFoot 42.259533 3.198591 7.330211
RightToeBase 32.000935 -0.000000 -0.000000
1059
root 0.309853 33.878852 1.616004 72.580943 9.853120 -25.617057
Spine -57.481733 -12.611413 36.309698
Head -11.159654 3.381362 30.812906
LeftShoulder -12.659388 38.015930 29.487915
LeftArm 61.007783 -31.684846 -86.123339
LeftForeArm 1.259314 -0.000000 109.184941
LeftHand -60.413566 -0.000000 4.595022
LeftHandThumb1 -26.253704 0.000000 33.147579
RightShoulder -40.714612 -46.457666 16.599787
RightArm 49.732507 51.594818 115.124436
RightForeArm 81.067281 -0.000000 27.474414
RightHand 14.687424 -0.000000 27.218245
RightHandThumb1 -24.326973 -0.000000 -32.862282
LeftUpLeg -75.540253 17.942458 13.907772
LeftLeg 10.479025 -0.000000 -0.000000
LeftFoot -5.212612 11.219182 8.781643
LeftToeBase 0.331073 -0.000000 -0.000000
RightUpLeg -14.538206 3.061754 -20.528565
RightLeg 110.671136 -0.000000 -0.000000
RightFoot 42.225593 3.039027 7.241705
RightToeBase 31.758664 -0.000000 -0.000000
1060
root 0.300370 33.885876 1.574992 73.092475 9.897779 -25.635861
Spine -57.501484 -12.619169 36.168041
Head -11.522592 3.444505 31.258300
LeftShoulder -12.580799 38.020815 29.641848
LeftArm 61.504066 -32.194835 -86.348733
LeftForeArm 1.048694 -0.000000 109.587011
LeftHand -60.368596 -0.000000 4.768024
LeftHandThumb1 -26.253704 0.000000 33.147579
RightShoulder -40.645701 -46.281180 16.322549
RightArm 49.901109 51.978430 115.070201
RightForeArm 81.043192 0.000000 26.883078
RightHand 14.455609 -0.000000 27.151290
RightHandThumb1 -24.326973 -0.000000 -32.862282
LeftUpLeg -76.030537 18.102175 13.732683
LeftLeg 10.190836 -0.000000 -0.000000
LeftFoot -4.963987 11.124679 9.056572
LeftToeBase 0.289757 -0.000000 -0.000000
RightUpLeg -14.137061 2.865380 -20.671815
RightLeg 110.131317 -0.000000 -0.000000
RightFoot 42.262027 2.977752 7.029141
RightToeBase 31.533797 -0.000000 -0.000000
1061
root 0.288278 33.894268 1.535147 73.644791 9.980419 -25.647083
Spine -57.580363 -12.644028 36.117563
Head -11.846551 3.566454 31.650646
LeftShoulder -12.472336 37.964140 29.824647
LeftArm 61.902278 -32.783685 -86.648514
LeftForeArm 0.926524 -0.000000 110.036099
LeftHand -60.374616 -0.000000 4.680199
LeftHandThumb1 -26.253704 0.000000 33.147579
RightShoulder -40.531616 -46.205725 16.020247
RightArm 49.875084 52.228341 114.774453
RightForeArm 81.162322 -0.000000 26.378633
RightHand 14.459186 -0.000000 26.601595
RightHandThumb1 -24.326973 -0.000000 -32.862282
LeftUpLeg -76.540773 18.229272 13.648498
LeftLeg 9.895460 -0.000000 -0.000000
LeftFoot -4.687622 11.101208 9.299157
LeftToeBase 0.246176 -0.000000 -0.000000
RightUpLeg -13.740474 2.681605 -20.784600
RightLeg 109.566973 -0.000000 -0.000000
RightFoot 42.282566 3.057834 6.880702
RightToeBase 31.245499 -0.000000 -0.000000
1062
root 0.277226 33.901499 1.494144 74.171820 10.066568 -25.687332
Spine -57.592526 -12.578378 35.943740
Head -12.225133 3.556763 32.037233
LeftShoulder -12.276126 37.909249 30.041073
LeftArm 62.471788 -33.316241 -87.034710
LeftForeArm 0.692383 0.000000 110.497113
LeftHand -60.370270 -0.000000 4.846319
LeftHandThumb1 -26.253704 0.000000 33.147579
RightShoulder -40.637256 -46.114454 15.862676
RightArm 49.803941 52.400295 114.405909
RightForeArm 81.322617 -0.000000 25.877472
RightHand 14.581894 -0.000000 26.153704
RightHandThumb1 -24.326973 -0.000000 -32.862282
LeftUpLeg -77.050854 18.384999 13.542340
LeftLeg 9.617281 -0.000000 -0.000000
LeftFoot -4.425952 11.059690 9.601331
LeftToeBase 0.243410 -0.000000 -0.000000
RightUpLeg -13.312194 2.594219 -20.903811
RightLeg 108.953012 -0.000000 -0.000000
RightFoot 42.278761 3.229820 6.828647
RightToeBase 31.262722 -0.000000 -0.000000
